<svg width="145" height="206" viewBox="0 0 145 206" fill="none" xmlns="http://www.w3.org/2000/svg">
<path d="M89.7699 32.7086L89.9913 33.6838L89.7699 32.7086ZM5.74629 205.287C6.08571 205.723 6.71405 205.801 7.14972 205.461L14.2495 199.93C14.6852 199.591 14.7632 198.963 14.4238 198.527C14.0844 198.091 13.456 198.013 13.0204 198.353L6.70945 203.269L1.79291 196.958C1.45349 196.523 0.825153 196.445 0.389476 196.784C-0.0462017 197.123 -0.124237 197.752 0.21518 198.187L5.74629 205.287ZM144.424 0.759371C115.841 1.15126 96.7637 27.2864 88.7793 53.7979C84.7735 67.0989 83.4982 80.6582 85.238 91.4118C86.9687 102.109 91.7672 110.385 100.229 112.386L100.69 110.44C93.4381 108.725 88.9015 101.532 87.2124 91.0924C85.5324 80.7087 86.7527 67.4624 90.6944 54.3746C98.6049 28.1083 117.23 3.1324 144.451 2.75918L144.424 0.759371ZM100.229 112.386C108.682 114.385 117.244 108.857 123.957 100.344C130.719 91.7704 135.885 79.8512 137.554 68.2552C139.218 56.683 137.423 45.2015 129.936 37.765C122.421 30.3008 109.479 27.2083 89.5485 31.7335L89.9913 33.6838C109.612 29.2291 121.71 32.4136 128.527 39.1839C135.371 45.982 137.196 56.6925 135.574 67.9704C133.955 79.2244 128.926 90.8133 122.386 99.1059C115.798 107.46 107.951 112.157 100.69 110.44L100.229 112.386ZM89.5485 31.7335C73.4178 35.3958 60.3828 46.0155 49.8537 60.2848C39.3267 74.5514 31.2537 92.532 25.05 111.065C12.6422 148.133 7.64511 187.621 5.54278 204.549L7.52753 204.796C9.62979 187.868 14.6088 148.559 26.9465 111.7C33.1156 93.2705 41.1078 75.506 51.463 61.4723C61.8162 47.4413 74.4806 37.2054 89.9913 33.6838L89.5485 31.7335Z" fill="#006A5D"/>
</svg>
