<svg width="24" height="25" viewBox="0 0 24 25" fill="none" xmlns="http://www.w3.org/2000/svg">
<g clip-path="url(#clip0_4753_2743)">
<path d="M17.7098 1.43164H6.28999C3.13649 1.43164 0.580078 3.98805 0.580078 7.14155V18.5614C0.580078 21.7149 3.13649 24.2713 6.28999 24.2713H17.7098C20.8633 24.2713 23.4197 21.7149 23.4197 18.5614V7.14155C23.4197 3.98805 20.8633 1.43164 17.7098 1.43164Z" stroke="#E5EFEE" stroke-linecap="round" stroke-linejoin="round"/>
<path d="M16.5679 12.1323C16.7088 13.0827 16.5465 14.0533 16.104 14.9062C15.6615 15.759 14.9613 16.4506 14.1031 16.8825C13.2448 17.3145 12.2723 17.4649 11.3237 17.3122C10.3751 17.1596 9.49875 16.7117 8.81936 16.0323C8.13998 15.3529 7.69211 14.4766 7.53946 13.528C7.38682 12.5794 7.53718 11.6068 7.96915 10.7486C8.40111 9.89039 9.09269 9.19023 9.94553 8.74771C10.7984 8.30519 11.769 8.14286 12.7194 8.28379C13.6889 8.42755 14.5864 8.87929 15.2794 9.57229C15.9724 10.2653 16.4241 11.1628 16.5679 12.1323Z" stroke="#E5EFEE" stroke-linecap="round" stroke-linejoin="round"/>
<path d="M18.2812 6.57031H18.2927" stroke="#E5EFEE" stroke-linecap="round" stroke-linejoin="round"/>
</g>
<defs>
<clipPath id="clip0_4753_2743">
<rect width="24" height="24" fill="white" transform="translate(0 0.851562)"/>
</clipPath>
</defs>
</svg>
