<svg width="24" height="25" viewBox="0 0 24 25" fill="none" xmlns="http://www.w3.org/2000/svg">
<g clip-path="url(#clip0_4753_2748)">
<path d="M6.83894 6.80874C7.09463 6.80874 7.3019 6.60146 7.3019 6.34578C7.3019 6.09009 7.09463 5.88281 6.83894 5.88281C6.58325 5.88281 6.37598 6.09009 6.37598 6.34578C6.37598 6.60146 6.58325 6.80874 6.83894 6.80874Z" fill="#E5EFEE"/>
<path d="M6.83984 8.48633V17.7332" stroke="#E5EFEE" stroke-linecap="round" stroke-linejoin="round"/>
<path d="M17.623 17.7337V11.8016C17.6214 10.8493 17.2423 9.93642 16.569 9.26303C15.8956 8.58965 14.9827 8.21062 14.0304 8.20898C13.077 8.20898 12.1626 8.58729 11.4879 9.26086C10.8132 9.93442 10.4333 10.8482 10.4316 11.8016V17.7337" stroke="#E5EFEE" stroke-linecap="round" stroke-linejoin="round"/>
<path d="M10.4316 11.8011V8.48633" stroke="#E5EFEE" stroke-linecap="round" stroke-linejoin="round"/>
<path d="M22.185 1.43164H1.81465C1.48722 1.43164 1.1732 1.56171 0.941675 1.79324C0.710148 2.02476 0.580078 2.33878 0.580078 2.66621V23.0366C0.580078 23.364 0.710148 23.678 0.941675 23.9095C1.1732 24.1411 1.48722 24.2711 1.81465 24.2711H22.185C22.5124 24.2711 22.8265 24.1411 23.058 23.9095C23.2895 23.678 23.4196 23.364 23.4196 23.0366V2.66621C23.4196 2.33878 23.2895 2.02476 23.058 1.79324C22.8265 1.56171 22.5124 1.43164 22.185 1.43164Z" stroke="#E5EFEE" stroke-linecap="round" stroke-linejoin="round"/>
</g>
<defs>
<clipPath id="clip0_4753_2748">
<rect width="24" height="24" fill="white" transform="translate(0 0.851562)"/>
</clipPath>
</defs>
</svg>
