<svg width="601" height="695" viewBox="0 0 601 695" fill="none" xmlns="http://www.w3.org/2000/svg">
<g clip-path="url(#clip0_3500_3169)">
<path fill-rule="evenodd" clip-rule="evenodd" d="M600 230.823H600.018V192.421H599.994C600 197.709 600 203.152 600 208.755V230.823Z" fill="#002822"/>
<path fill-rule="evenodd" clip-rule="evenodd" d="M392 0.754883H208C109.948 0.754883 60.9218 0.754883 30.4609 31.2158C0 61.6767 0 110.703 0 208.755V486.34C0 584.392 0 633.418 30.4609 663.879C60.9218 694.34 109.948 694.34 208 694.34H392C490.052 694.34 539.078 694.34 569.539 663.879C600 633.418 600 584.392 600 486.34V230.823H438.946V394.034C440.386 478.994 384.226 534.674 300.226 534.674C219.586 534.674 161.026 481.874 161.026 395.954H202.306C202.306 456.914 240.706 495.314 300.226 495.314C360.226 495.314 397.666 455.474 397.666 394.034V230.834H280.066V192.434L599.994 192.421C599.901 105.161 598.259 59.9361 569.539 31.2158C539.078 0.754883 490.052 0.754883 392 0.754883ZM297.133 436.876C325.852 436.876 349.133 413.595 349.133 384.876C349.133 356.157 325.852 332.876 297.133 332.876C268.414 332.876 245.133 356.157 245.133 384.876C245.133 413.595 268.414 436.876 297.133 436.876Z" fill="#002822"/>
</g>
<defs>
<clipPath id="clip0_3500_3169">
<rect width="601" height="694" fill="white" transform="translate(0 0.584961)"/>
</clipPath>
</defs>
</svg>
