<svg width="490" height="578" viewBox="0 0 490 578" fill="none" xmlns="http://www.w3.org/2000/svg">
<path d="M10.2045 150.611L6.4206 149.314L10.2045 150.611ZM213.962 576.262C215.524 577.824 218.056 577.824 219.618 576.262L245.074 550.806C246.636 549.244 246.636 546.711 245.074 545.149C243.512 543.587 240.98 543.587 239.417 545.149L216.79 567.777L194.163 545.149C192.601 543.587 190.068 543.587 188.506 545.149C186.944 546.711 186.944 549.244 188.506 550.806L213.962 576.262ZM481.928 0.0636032C482.666 120.413 449.149 202.068 400.088 253.94C351.011 305.831 285.969 328.355 222.817 329.659C159.596 330.964 98.6106 310.992 57.8906 278.34C17.2546 245.756 -2.83395 200.984 13.9883 151.909L6.4206 149.314C-11.7982 202.464 10.4296 250.537 52.886 284.581C95.2583 318.558 158.141 338.996 222.982 337.657C287.894 336.317 355.108 313.141 405.901 259.437C456.71 205.716 490.675 121.884 489.928 0.0145218L481.928 0.0636032ZM13.9883 151.909C18.468 138.84 24.5381 132.619 30.9615 130.68C37.472 128.714 45.8525 130.676 56.0033 137.53C76.2875 151.225 100.566 182.434 123.986 225.751C170.697 312.149 212.79 444.448 212.79 573.434H220.79C220.79 442.924 178.266 309.328 131.023 221.946C107.465 178.374 82.4324 145.722 60.4799 130.9C49.5124 123.495 38.5435 120.034 28.6495 123.021C18.6684 126.034 11.2791 135.141 6.4206 149.314L13.9883 151.909Z" fill="#006A5D"/>
</svg>
