<svg width="1834" height="694" viewBox="0 0 1834 694" fill="none" xmlns="http://www.w3.org/2000/svg">
<path fill-rule="evenodd" clip-rule="evenodd" d="M600 230.238H600.018V191.836H599.994C600 197.124 600 202.567 600 208.17V230.238Z" fill="#002822"/>
<path fill-rule="evenodd" clip-rule="evenodd" d="M392 0.169922H208C109.948 0.169922 60.9218 0.169922 30.4609 30.6308C0 61.0917 0 110.118 0 208.17V485.755C0 583.807 0 632.833 30.4609 663.294C60.9218 693.755 109.948 693.755 208 693.755H392C490.052 693.755 539.078 693.755 569.539 663.294C600 632.833 600 583.807 600 485.755V230.238H438.946V393.449C440.386 478.409 384.226 534.089 300.226 534.089C219.586 534.089 161.026 481.289 161.026 395.369H202.306C202.306 456.329 240.706 494.729 300.226 494.729C360.226 494.729 397.666 454.889 397.666 393.449V230.249H280.066V191.849L599.994 191.836C599.901 104.576 598.259 59.3511 569.539 30.6308C539.078 0.169922 490.052 0.169922 392 0.169922ZM297.133 436.291C325.852 436.291 349.133 413.01 349.133 384.291C349.133 355.572 325.852 332.291 297.133 332.291C268.414 332.291 245.133 355.572 245.133 384.291C245.133 413.01 268.414 436.291 297.133 436.291Z" fill="#002822"/>
<path d="M1048.5 379.08H1048.84L1047.48 352.131C1032.47 372.598 997.342 381.467 973.805 381.809C930.824 381.809 900.465 352.813 900.465 303.692V195.567H928.436V303.351C928.436 335.757 947.539 355.884 979.604 355.884C1010.3 355.542 1046.45 331.323 1046.45 300.963V195.567H1074.43V379.08H1048.5Z" fill="#002822"/>
<path d="M1291.16 140.296L1291.51 139.955V378.738H1265.24L1263.88 348.038C1250.23 371.234 1217.67 382.15 1192.77 382.15C1144.67 382.15 1107.49 350.426 1107.49 294.823C1107.49 238.197 1144.67 207.497 1192.43 207.497C1216.31 207.497 1251.59 218.413 1263.53 241.267V140.296H1291.16ZM1194.47 233.422H1194.81C1162.07 233.422 1135.46 254.912 1135.46 294.482C1135.46 333.37 1162.07 355.542 1194.81 355.542C1228.24 355.542 1262.51 330.982 1262.51 294.141C1262.51 257.982 1227.9 233.422 1194.47 233.422Z" fill="#002822"/>
<path d="M1493.7 352.131H1493.36C1476.3 372.257 1438.97 382.15 1412.7 382.15C1360.51 382.15 1324.01 347.697 1324.01 294.141C1324.01 243.314 1360.51 206.814 1411.34 206.814C1462.85 206.814 1510.08 238.539 1503.59 305.739H1352.32C1355.39 336.781 1380.98 356.225 1413.38 356.225C1432.49 356.225 1463.68 348.72 1474.94 335.075L1493.7 352.131ZM1476.99 282.202V282.543C1475.62 249.795 1445.11 232.057 1412.02 232.057C1382.68 232.057 1357.1 249.795 1352.32 282.202H1476.99Z" fill="#002822"/>
<path d="M837.395 283.566V229.586H597.82V195.296H866.731V283.566H837.395Z" fill="#002822"/>
<path d="M894.855 504.27C894.855 452.079 932.037 415.92 982.182 415.92C1033.69 415.92 1069.85 452.079 1069.85 504.27C1069.85 555.438 1033.01 591.256 982.182 591.256C931.696 591.256 894.855 555.438 894.855 504.27ZM1042.22 504.27C1042.22 466.747 1016.29 441.504 982.523 441.504C948.07 441.504 922.827 466.747 922.827 504.27C922.827 539.747 947.729 564.989 982.182 564.989C1016.98 564.989 1041.88 539.747 1042.22 504.27Z" fill="#002822"/>
<path d="M1207.08 456.855L1206.74 457.196C1192.07 443.892 1176.72 440.822 1159.32 440.822C1136.13 440.481 1117.37 448.668 1117.71 465.383C1118.05 482.78 1138.52 487.896 1159.67 490.284C1190.37 494.037 1231.3 500.177 1230.62 541.793C1229.94 575.564 1197.87 592.279 1160.01 592.279C1131.69 592.279 1103.72 584.433 1084.62 560.555L1100.65 541.111C1115.66 559.531 1139.88 567.036 1160.69 567.036C1179.11 567.036 1202.65 561.237 1203.33 540.77C1203.67 522.349 1183.89 516.892 1157.96 513.821C1125.55 509.728 1090.76 501.2 1090.76 465.383C1090.42 429.565 1126.58 415.579 1158.98 415.92C1184.23 415.92 1205.03 422.06 1223.11 438.434L1207.08 456.855Z" fill="#002822"/>
<path d="M1291.49 101.38V447.644C1307.45 427.492 1328.33 417.967 1349.82 417.626C1397.23 417.626 1420.43 449.009 1420.43 495.401V588.185H1392.8V495.742C1392.8 462.654 1375.74 443.892 1345.04 443.892C1314.34 443.892 1291.83 468.112 1291.83 498.812V588.185H1263.86V101.38H1291.49Z" fill="#002822"/>
<path d="M1588.34 588.185H1588.68L1587.32 561.237C1572.31 581.704 1552.18 590.573 1528.64 590.914C1485.66 590.914 1455.3 561.919 1455.3 512.798V419.673H1483.28V512.457C1483.28 544.863 1502.38 564.989 1534.44 564.989C1565.14 564.648 1586.29 540.429 1586.29 510.069V419.673H1614.26V588.185H1588.34Z" fill="#002822"/>
<path d="M1799.05 588.185L1798.37 588.868L1797.69 558.167C1784.38 581.363 1758.8 592.279 1735.6 592.279C1687.16 592.279 1649.3 558.849 1649.3 503.929C1649.3 449.35 1687.85 416.603 1735.94 416.944C1761.19 416.944 1786.09 428.542 1798.37 450.373L1798.71 419.673H1826V588.185H1799.05ZM1737.31 443.21L1736.97 443.551C1703.54 443.551 1676.59 467.429 1676.59 504.952C1676.59 542.475 1703.54 566.695 1736.97 566.695C1818.15 566.695 1818.15 443.21 1737.31 443.21Z" fill="#002822"/>
<path d="M866.731 492.672C867.754 553.05 827.843 592.62 768.147 592.62C657.616 592.352 668.781 484.227 669.223 422.037H698.559C698.346 470.125 683.472 562.97 768.147 564.648C810.787 564.648 837.394 536.335 837.394 492.672V101.38H866.731V492.672Z" fill="#002822"/>
</svg>
