<svg width="400" height="400" viewBox="0 0 400 400" fill="none" xmlns="http://www.w3.org/2000/svg">
<path d="M88.2463 2.74622C56.8306 0.870929 25.7948 17.4434 10.9752 47.1428C-8.78185 86.742 7.63668 134.958 47.5381 154.603L130.716 195.523C120.916 224.986 128.792 258.776 153.587 280.644L263.128 377.206C296.39 406.534 347.486 403.568 377.046 370.554C406.609 337.54 403.613 286.762 370.352 257.434L318.592 211.804L309.25 203.53L292.602 222.145L301.991 230.419L353.751 276.049C376.965 296.517 379 330.964 358.367 354.007C337.732 377.051 302.941 379.107 279.729 358.639L170.188 262.029C153.795 247.573 148.24 226.206 153.499 206.747L178.558 219.078C218.459 238.724 267.019 222.535 286.779 182.936C296.466 163.515 297.544 141.958 291.339 122.818L287.534 110.996L263.693 118.605L267.547 130.428C271.828 143.634 271.142 158.371 264.384 171.913C250.606 199.525 217.591 210.557 189.696 196.823L165.123 184.694C165.369 184.497 165.394 184.267 165.567 184.07C177.08 171.211 192.958 165.032 208.905 165.475L221.416 165.788L222.131 140.925L209.621 140.612C186.619 139.97 163.393 149.08 146.878 167.524C145.176 169.421 143.957 171.561 142.471 173.57L58.6639 132.299C30.7692 118.565 19.6261 85.7785 33.402 58.1658C47.1803 30.5528 80.195 19.5218 108.09 33.2557L181.282 69.2925L192.477 74.8281L203.618 52.5244L192.371 47.0365L119.181 10.9511C109.205 6.03981 98.7035 3.37098 88.2315 2.74573L88.2463 2.74622ZM275.243 21.8291C272.57 21.7778 269.95 22.5792 267.768 24.1157C265.585 25.6522 263.956 27.8431 263.118 30.3671L257.406 46.8853C256.856 48.4326 256.62 50.0726 256.711 51.711C256.802 53.3494 257.218 54.9537 257.935 56.4316C258.652 57.9096 259.656 59.232 260.89 60.3227C262.123 61.4134 263.562 62.2509 265.122 62.7869C266.683 63.3229 268.334 63.5469 269.982 63.4459C271.63 63.345 273.242 62.9211 274.724 62.1987C276.206 61.4763 277.53 60.4696 278.62 59.2366C279.709 58.0036 280.542 56.5687 281.071 55.0143L286.784 38.4963C287.461 36.636 287.682 34.6419 287.429 32.6796C287.175 30.7173 286.454 28.8435 285.326 27.2137C284.197 25.5839 282.694 24.2451 280.94 23.3087C279.187 22.3722 277.234 21.8649 275.243 21.8291ZM330.729 52.7536C327.905 52.856 325.198 53.9058 323.051 55.7319L306.837 69.0096C305.476 70.0153 304.335 71.2855 303.483 72.7429C302.631 74.2004 302.087 75.8147 301.882 77.4878C301.677 79.1609 301.817 80.8579 302.292 82.4758C302.768 84.0936 303.569 85.5986 304.647 86.8992C305.726 88.1999 307.059 89.2691 308.566 90.0419C310.074 90.8147 311.723 91.2749 313.415 91.3947C315.106 91.5145 316.805 91.2913 318.407 90.7388C320.009 90.1862 321.481 89.3158 322.735 88.1803L338.998 74.9036C341.057 73.2709 342.545 71.0341 343.25 68.5118C343.955 65.9896 343.842 63.3104 342.926 60.856C342.009 58.4016 340.337 56.2971 338.147 54.8423C335.957 53.3875 333.362 52.6565 330.729 52.7536ZM352.692 122.507C351.56 122.547 350.439 122.741 349.359 123.082L335.403 127.264C333.826 127.733 332.359 128.507 331.083 129.54C329.808 130.574 328.75 131.847 327.97 133.287C327.191 134.727 326.704 136.306 326.538 137.933C326.373 139.56 326.532 141.204 327.006 142.77C327.48 144.336 328.26 145.793 329.301 147.06C330.343 148.326 331.625 149.376 333.075 150.149C334.525 150.922 336.114 151.404 337.751 151.567C339.389 151.729 341.042 151.569 342.617 151.096L356.623 146.866C359.541 146.01 362.045 144.127 363.667 141.569C365.29 139.012 365.919 135.954 365.437 132.968C364.955 129.983 363.396 127.274 361.05 125.349C358.704 123.423 355.733 122.413 352.692 122.507Z" fill="#002822"/>
</svg>
