<svg width="88" height="24" viewBox="0 0 88 24" fill="none" xmlns="http://www.w3.org/2000/svg">
<path d="M2.7688 15.6945C2.7688 16.2035 2.35735 16.615 1.84827 16.615C1.33919 16.615 0.927734 16.2035 0.927734 15.6945C0.927734 15.1854 1.33919 14.7739 1.84827 14.7739C2.35735 14.7739 2.7688 15.1889 2.7688 15.6945Z" fill="#FF8F6E"/>
<path d="M9.28548 14.7739C8.75548 14.7739 8.33008 15.1854 8.33008 15.6945C8.33008 16.2035 8.75896 16.615 9.28548 16.615H15.5862C16.1128 16.615 16.5416 16.2035 16.5416 15.6945C16.5416 15.1854 16.1128 14.7739 15.5862 14.7739H9.28548Z" fill="#293854"/>
<path d="M6.48056 15.6945C6.48056 16.2035 6.05865 16.615 5.53911 16.615C5.01957 16.615 4.59766 16.2035 4.59766 15.6945C4.59766 15.1854 5.01957 14.7739 5.53911 14.7739C6.05865 14.7739 6.48056 15.1889 6.48056 15.6945Z" fill="#00DBCC"/>
<path d="M18.3828 15.6941C18.3828 16.2032 18.7943 16.6146 19.2999 16.6146C19.5021 16.6146 19.6869 16.5484 19.8403 16.4368C20.733 15.7883 21.5419 15.7883 22.4346 16.4368C22.5845 16.5484 22.7728 16.6112 22.975 16.6112C23.4806 16.6112 23.8921 16.1997 23.8921 15.6906C23.8921 15.1815 23.4806 14.7701 22.975 14.7701C22.7728 14.7701 22.588 14.8329 22.4346 14.9444C21.5419 15.593 20.733 15.5965 19.8403 14.9444C19.6869 14.8329 19.5021 14.7666 19.2999 14.7666C18.7943 14.7736 18.3828 15.1885 18.3828 15.6941Z" fill="#00DBCC"/>
<path d="M11.4747 18.4521C10.9551 18.4521 10.5332 18.8636 10.5332 19.3727C10.5332 19.8818 10.9551 20.2932 11.4747 20.2932H20.8369C21.3564 20.2932 21.7783 19.8818 21.7783 19.3727C21.7783 18.8636 21.3564 18.4521 20.8369 18.4521H11.4747Z" fill="#409EFF"/>
<path d="M3.03906 19.3728C3.03906 19.8819 3.46097 20.2934 3.98052 20.2934C4.18973 20.2934 4.37802 20.2271 4.53493 20.1155C5.44849 19.467 6.28185 19.467 7.19541 20.1155C7.34883 20.2271 7.54061 20.2899 7.74982 20.2899C8.26936 20.2899 8.69127 19.8784 8.69127 19.3693C8.69127 18.8602 8.26936 18.4488 7.74982 18.4488C7.54061 18.4488 7.35231 18.5116 7.19541 18.6231C6.28185 19.2717 5.44849 19.2752 4.53493 18.6231C4.37802 18.5116 4.18973 18.4453 3.98052 18.4453C3.46097 18.4523 3.03906 18.8637 3.03906 19.3728Z" fill="#293854"/>
<path d="M16.5598 11.9777C16.5598 12.4867 16.1484 12.8982 15.6393 12.8982C15.1302 12.8982 14.7188 12.4867 14.7188 11.9777C14.7188 11.4686 15.1302 11.0571 15.6393 11.0571C16.1484 11.0571 16.5598 11.4721 16.5598 11.9777Z" fill="#FF8F6E"/>
<path d="M24.8193 11.9776C24.8193 11.9741 24.8193 11.9671 24.8193 11.9636C24.8123 11.4615 24.4044 11.0605 23.8988 11.0605H19.317C18.8149 11.0605 18.4035 11.465 18.3965 11.9671C18.3965 11.9706 18.3965 11.9776 18.3965 11.9811C18.3965 12.4902 18.8079 12.9016 19.317 12.9016C19.3205 12.9016 23.8953 12.9016 23.8988 12.9016C24.4078 12.8981 24.8193 12.4867 24.8193 11.9776Z" fill="#409EFF"/>
<path d="M11.9355 11.0571C11.9355 11.0571 0.924018 11.0571 0.920531 11.0571C0.418422 11.0571 0.0104606 11.4616 0 11.9602C0 11.9637 0 11.9707 0 11.9742C0 12.4833 0.411449 12.8947 0.920531 12.8947H11.9355C12.4551 12.8947 12.877 12.4833 12.877 11.9742C12.877 11.4721 12.4586 11.0571 11.9355 11.0571Z" fill="#409EFF"/>
<path d="M11.9141 9.19842C12.4337 9.19842 12.8556 8.78697 12.8556 8.27789C12.8556 8.07565 12.7893 7.88736 12.6742 7.73742C12.0083 6.84478 12.0117 6.03234 12.6742 5.13971C12.7893 4.98977 12.8556 4.80148 12.8556 4.59924C12.8556 4.09016 12.4337 3.67871 11.9141 3.67871C11.3946 3.67871 10.9727 4.09016 10.9727 4.59924C10.9727 4.80148 11.0389 4.98977 11.154 5.13971C11.82 6.03234 11.82 6.84478 11.154 7.73742C11.0389 7.89084 10.9727 8.07565 10.9727 8.27789C10.9727 8.78697 11.3946 9.19842 11.9141 9.19842Z" fill="#409EFF"/>
<path d="M5.52544 9.219C5.0059 9.219 4.58398 8.80755 4.58398 8.29846C4.58398 7.78938 5.0059 7.37793 5.52544 7.37793H8.19986C8.71941 7.37793 9.14132 7.78938 9.14132 8.29846C9.14132 8.80755 8.71941 9.219 8.19986 9.219H5.52544Z" fill="#293854"/>
<path d="M2.76099 8.29846C2.76099 8.80755 2.34954 9.219 1.84045 9.219C1.33137 9.219 0.919922 8.80755 0.919922 8.29846C0.919922 7.78938 1.33137 7.37793 1.84045 7.37793C2.34954 7.37793 2.76099 7.78938 2.76099 8.29846Z" fill="#293854"/>
<path d="M16.9602 3.67871C17.4798 3.67871 17.9017 4.09016 17.9017 4.59924C17.9017 5.10833 17.4798 5.51978 16.9602 5.51978H15.6387C15.1192 5.51978 14.6973 5.10833 14.6973 4.59924C14.6973 4.09016 15.1192 3.67871 15.6387 3.67871H16.9602Z" fill="#293854"/>
<path d="M8.19767 5.53052C8.71721 5.53052 9.13912 5.11907 9.13912 4.60999C9.13912 4.1009 8.71721 3.68945 8.19767 3.68945H3.97856C3.45902 3.68945 3.03711 4.1009 3.03711 4.60999C3.03711 5.11907 3.45902 5.53052 3.97856 5.53052H8.19767Z" fill="#00DBCC"/>
<path d="M23.8991 8.29846C23.8991 8.29498 23.8991 8.29498 23.8991 8.29149C23.8956 7.78589 23.4842 7.37793 22.9786 7.37793H15.6387C15.1192 7.37793 14.6973 7.78938 14.6973 8.29846C14.6973 8.80755 15.1192 9.219 15.6387 9.219C15.6387 9.219 22.9751 9.219 22.9786 9.219C23.4877 9.219 23.8991 8.80755 23.8991 8.29846Z" fill="#00DBCC"/>
<path d="M21.5852 4.59924C21.5852 5.10833 21.1738 5.51978 20.6647 5.51978C20.1556 5.51978 19.7441 5.10833 19.7441 4.59924C19.7441 4.09016 20.1556 3.67871 20.6647 3.67871C21.1738 3.67871 21.5852 4.09016 21.5852 4.59924Z" fill="#FF8F6E"/>
<path d="M11.7325 1.84106C11.2129 1.84106 10.791 1.42961 10.791 0.920533C10.791 0.41145 11.2129 0 11.7325 0H16.7501C17.2696 0 17.6915 0.41145 17.6915 0.920533C17.6915 1.42961 17.2696 1.84106 16.7501 1.84106H11.7325Z" fill="#409EFF"/>
<path d="M8.96802 0.924438C8.96802 1.43352 8.55657 1.84497 8.04749 1.84497C7.5384 1.84497 7.12695 1.43352 7.12695 0.924438C7.12695 0.415356 7.5384 0.00390625 8.04749 0.00390625C8.55657 0.00390625 8.96802 0.415356 8.96802 0.924438Z" fill="#293854"/>
<path d="M13.0782 22.1592C13.5977 22.1592 14.0196 22.5706 14.0196 23.0797C14.0196 23.5888 13.5977 24.0002 13.0782 24.0002H8.06059C7.54105 24.0002 7.11914 23.5888 7.11914 23.0797C7.11914 22.5706 7.54105 22.1592 8.06059 22.1592H13.0782Z" fill="#409EFF"/>
<path d="M17.7004 23.066C17.7004 23.5751 17.289 23.9866 16.7799 23.9866C16.2708 23.9866 15.8594 23.5751 15.8594 23.066C15.8594 22.557 16.2708 22.1455 16.7799 22.1455C17.289 22.1455 17.7004 22.557 17.7004 23.066Z" fill="#293854"/>
<path d="M78.7878 18.5811C80.1188 18.5811 81.2742 18.1004 82.2447 17.1484C83.2153 16.1963 83.7051 15.0317 83.7051 13.6637C83.7051 12.2957 83.2153 11.1311 82.2447 10.1791C81.2742 9.22703 80.1188 8.74639 78.7878 8.74639C77.4106 8.74639 76.246 9.22703 75.2662 10.1791C74.2957 11.1311 73.8058 12.2957 73.8058 13.6637C73.8058 15.0317 74.2957 16.1963 75.2662 17.1484C76.246 18.1097 77.4198 18.5811 78.7878 18.5811ZM78.7878 5.42811C81.0339 5.42811 82.9749 6.23226 84.5925 7.83132C86.21 9.43038 87.0234 11.3807 87.0234 13.6637V21.5019C87.0234 21.696 86.968 21.8069 86.8478 21.8439C86.7369 21.8808 86.6167 21.8439 86.5058 21.733L84.3337 19.6717C83.6127 20.3557 82.7716 20.9011 81.8195 21.2985C80.8675 21.696 79.8323 21.8993 78.7323 21.8993C76.4863 21.8993 74.5452 21.0952 72.9277 19.4961C71.3101 17.8971 70.4967 15.9468 70.4967 13.6637C70.4967 11.3714 71.3101 9.43038 72.9277 7.83132C74.5452 6.23226 76.4863 5.42811 78.7323 5.42811H78.7878ZM58.9983 18.5811C60.3755 18.5811 61.5309 18.1004 62.483 17.1484C63.435 16.1963 63.9156 15.0317 63.9156 13.6637V13.5528C63.8787 12.2218 63.3795 11.0849 62.4275 10.1513C61.4755 9.21778 60.3293 8.74639 58.9983 8.74639C57.6211 8.74639 56.4657 9.22703 55.5136 10.1791C54.5616 11.1311 54.081 12.2957 54.081 13.6637C54.081 15.0317 54.5616 16.1963 55.5136 17.1484C56.4657 18.1097 57.6211 18.5811 58.9983 18.5811ZM67.2339 13.5528V13.6637V21.5019C67.2339 21.696 67.1785 21.8069 67.0583 21.8439C66.9474 21.8808 66.8272 21.8439 66.7163 21.733L64.5996 19.6717C63.8787 20.3557 63.0283 20.9011 62.0578 21.2985C61.0872 21.696 60.0613 21.8993 58.9983 21.8993C56.706 21.8993 54.765 21.0952 53.1659 19.4961C51.5668 17.8971 50.7627 15.9468 50.7627 13.6637C50.7627 11.3714 51.5668 9.43038 53.1659 7.83132C54.765 6.23226 56.7152 5.42811 58.9983 5.42811C59.9134 5.42811 60.7915 5.56675 61.6326 5.85329C62.4737 6.13982 63.2316 6.54653 63.9249 7.08263V2.67365C63.9249 2.51652 63.9803 2.38712 64.1005 2.27621C64.2114 2.16529 64.3501 2.10059 64.498 2.10059H66.7255C66.8365 2.10059 66.9566 2.15605 67.0675 2.27621C67.1785 2.38712 67.2432 2.52576 67.2432 2.67365L67.2339 13.5528ZM39.2088 18.5811C40.586 18.5811 41.7506 18.1004 42.7304 17.1484C43.7009 16.1963 44.1908 15.0317 44.1908 13.6637C44.1908 12.2957 43.7009 11.1311 42.7304 10.1791C41.7599 9.22703 40.586 8.74639 39.2088 8.74639C37.8778 8.74639 36.7224 9.22703 35.7519 10.1791C34.7813 11.1311 34.2915 12.2957 34.2915 13.6637C34.2915 15.0317 34.7813 16.1963 35.7519 17.1484C36.7224 18.1097 37.8685 18.5811 39.2088 18.5811ZM39.2088 5.42811C41.5011 5.42811 43.4421 6.23226 45.0412 7.83132C46.6403 9.43038 47.4444 11.3807 47.4444 13.6637V21.5019C47.4444 21.696 47.3982 21.8069 47.3058 21.8439C47.2133 21.8808 47.1024 21.8439 46.9915 21.733L44.8194 19.6717C43.9782 20.365 43.2573 20.9011 42.3052 21.2985C41.3532 21.696 40.318 21.8993 39.218 21.8993C36.972 21.8993 35.0309 21.0952 33.4134 19.4961C31.7958 17.8971 30.9824 15.9468 30.9824 13.6637C30.9824 11.3714 31.7958 9.43038 33.4134 7.83132C35.0217 6.23226 36.9535 5.42811 39.2088 5.42811Z" fill="#293854"/>
</svg>
