<svg width="105" height="25" viewBox="0 0 105 25" fill="none" xmlns="http://www.w3.org/2000/svg">
<g clip-path="url(#clip0_4008_1228)">
<path fill-rule="evenodd" clip-rule="evenodd" d="M8.55277 12.133C8.55277 9.9148 6.75459 8.11621 4.53578 8.11621C2.31657 8.11621 0.517578 9.9148 0.517578 12.133C0.517578 14.3518 2.31657 16.1502 4.53578 16.1502C6.75459 16.1502 8.55277 14.3518 8.55277 12.133ZM104.809 12.133C104.809 9.9148 103.01 8.11621 100.792 8.11621C98.5732 8.11621 96.7744 9.9148 96.7744 12.133C96.7744 14.3518 98.5732 16.1502 100.792 16.1502C103.01 16.1502 104.809 14.3518 104.809 12.133Z" fill="#2CB7DF"/>
<path fill-rule="evenodd" clip-rule="evenodd" d="M62.1712 15.7389C60.2191 15.7389 58.6365 14.3001 58.6365 12.1332C58.6365 9.96639 60.2191 8.52837 62.1712 8.52837C63.428 8.52837 64.515 9.11664 65.1682 10.1476L68.4357 7.80036C67.062 5.81371 64.769 4.51159 62.1712 4.51159C57.9664 4.51159 54.5575 7.92069 54.5575 12.1268C54.5575 16.332 57.9664 19.7415 62.1712 19.7415C64.6669 19.7415 66.8974 18.6305 68.5997 16.2918L65.2986 14.006C64.6046 15.0327 63.5379 15.7389 62.1712 15.7389ZM45.0782 15.7389C43.1255 15.7389 41.5425 14.3001 41.5425 12.1332C41.5425 9.96639 43.1255 8.52837 45.0782 8.52837C47.0305 8.52837 48.6133 9.97711 48.6133 12.1332C48.6133 14.2897 47.0305 15.7389 45.0782 15.7389ZM48.6917 6.19248C47.6776 5.2305 46.3247 4.51159 44.4266 4.51159C40.8125 4.51159 37.463 7.55749 37.463 12.1268C37.463 16.6954 40.7807 19.7415 44.4266 19.7415C46.1846 19.7415 47.5257 19.0574 48.5401 18.0596V19.3118H52.6195V4.94859H48.6917V6.19248ZM31.5654 6.622V4.94859H27.6335V19.3118H31.7101V12.4997C31.7101 9.63818 33.299 8.86123 35.0626 8.86123C35.4956 8.86123 35.9581 8.88995 36.4497 9.00501V4.94859C36.1603 4.86164 35.7267 4.804 35.2932 4.804C34.1372 4.804 32.4744 5.18338 31.5654 6.622ZM74.1057 0.758301H70.0264V14.767C70.0264 17.6277 71.7724 19.4242 75.2293 19.4242C76.6149 19.4242 77.9112 19.2214 78.7722 18.9923V15.3415C77.9732 15.571 77.0828 15.7443 75.9785 15.7443C74.8398 15.7443 74.1057 15.426 74.1057 14.2418V8.52837H78.8412V4.92736H74.1057V0.758301ZM87.4691 15.7389C85.5162 15.7389 83.9332 14.3001 83.9332 12.1332C83.9332 9.96639 85.5162 8.52837 87.4691 8.52837C89.421 8.52837 91.004 9.97711 91.004 12.1332C91.004 14.2897 89.421 15.7389 87.4691 15.7389ZM87.4691 4.51159C83.2634 4.51159 79.8547 7.92069 79.8547 12.1268C79.8547 16.332 83.2634 19.7415 87.4691 19.7415C91.6741 19.7415 95.0837 16.332 95.0837 12.1268C95.0837 7.92069 91.6741 4.51159 87.4691 4.51159ZM18.0804 15.7389C16.1275 15.7389 14.5447 14.2897 14.5447 12.1332C14.5447 9.97711 16.1275 8.52837 18.0804 8.52837C20.0325 8.52837 21.6155 9.96639 21.6155 12.1332C21.6155 14.3001 20.0325 15.7389 18.0804 15.7389ZM18.732 4.51159C16.8333 4.51159 15.4806 5.2305 14.4663 6.19248V4.94859H10.5391V24.4188H14.6185L14.6181 18.0596C15.6329 19.0574 16.9738 19.7415 18.732 19.7415C22.3775 19.7415 25.6956 16.6954 25.6956 12.1268C25.6956 7.55749 22.3455 4.51159 18.732 4.51159Z" fill="#263077"/>
</g>
<defs>
<clipPath id="clip0_4008_1228">
<rect width="104.348" height="24" fill="white" transform="translate(0.5 0.5)"/>
</clipPath>
</defs>
</svg>
